#N canvas 319 111 801 402 12;
#X obj -3 -31 cnv 15 547 395 empty empty sendOSC 20 30 1 30 #a37eb4
#ffffff 0;
#X obj 23 19 cnv 15 250 323 empty empty OSC\\\ -\\\\\\\ Send 20 12
1 14 #e3c6ff #404040 0;
#X obj 280 20 cnv 15 249 321 empty empty OSC\\\ -\\\\\\\ Set 20 12
1 14 #e3c6ff #404040 0;
#X obj 314 242 netsend -u -b;
#X obj 349 160 oscformat;
#X obj 349 184 list prepend send;
#X obj 349 208 list trim;
#X obj 314 57 loadbang;
#X obj 68 56 hsl 128 15 0 127 0 0 empty empty empty -2 -8 0 10 #fcfcfc
#000000 #000000 0 1;
#X floatatom 66 75 5 0 0 0 - - - 0;
#X obj 66 98 t f b;
#X obj 71 192 hsl 128 15 0 127 0 0 empty empty empty -2 -8 0 10 #fcfcfc
#000000 #000000 0 1;
#X floatatom 68 211 5 0 0 0 - - - 0;
#X obj 68 236 t f b;
#X msg 98 124 set x1;
#X msg 100 275 set y1;
#X obj 68 304 send osc;
#X msg 326 110 disconnect;
#X obj 66 160 s osc;
#X obj 349 137 r osc;
#X obj 552 -30 cnv 15 244 395 empty empty receiveOSC 20 30 1 30 #cbb95c
#ffffff 0;
#X obj 580 54 oscparse;
#X obj 580 78 list trim;
#X obj 583 229 hsl 128 15 0 127 0 0 empty empty empty -2 -8 0 10 #fcfcfc
#000000 #000000 0 1;
#X obj 620 256 hsl 128 15 0 127 0 0 empty empty empty -2 -8 0 10 #fcfcfc
#000000 #000000 0 1;
#X obj 580 200 route x1 y1;
#X msg 314 84 connect 192.168.100.255 9000;
#X obj 580 30 netreceive -u -b -f 9000;
#X obj 610 120 print;
#X text 350 310 sudo ufw allow 9000;
#X text 310 290 p/desactivar firewall:;
#X connect 4 0 5 0;
#X connect 5 0 6 0;
#X connect 6 0 3 0;
#X connect 7 0 26 0;
#X connect 8 0 9 0;
#X connect 9 0 10 0;
#X connect 10 0 18 0;
#X connect 10 1 14 0;
#X connect 11 0 12 0;
#X connect 12 0 13 0;
#X connect 13 0 16 0;
#X connect 13 1 15 0;
#X connect 14 0 18 0;
#X connect 15 0 16 0;
#X connect 17 0 3 0;
#X connect 19 0 4 0;
#X connect 21 0 22 0;
#X connect 22 0 25 0;
#X connect 22 0 28 0;
#X connect 25 0 23 0;
#X connect 25 1 24 0;
#X connect 26 0 3 0;
#X connect 27 0 21 0;
